<svg width="78" height="78" viewBox="0 0 78 78" fill="none" xmlns="http://www.w3.org/2000/svg">
<circle opacity="0.3" cx="39" cy="39" r="38.5" stroke="white"/>
<path d="M35.59 40.51L42.42 44.49M42.41 33.51L35.59 37.49M48 32C48 33.6569 46.6569 35 45 35C43.3431 35 42 33.6569 42 32C42 30.3431 43.3431 29 45 29C46.6569 29 48 30.3431 48 32ZM36 39C36 40.6569 34.6569 42 33 42C31.3431 42 30 40.6569 30 39C30 37.3431 31.3431 36 33 36C34.6569 36 36 37.3431 36 39ZM48 46C48 47.6569 46.6569 49 45 49C43.3431 49 42 47.6569 42 46C42 44.3431 43.3431 43 45 43C46.6569 43 48 44.3431 48 46Z" stroke="white" stroke-width="2" stroke-linecap="round" stroke-linejoin="round"/>
</svg>
